<?xml version="1.0" encoding="UTF-8" standalone="no"?> <svg id="Line_Gradient" data-name="Line Gradient" xmlns="http://www.w3.org/2000/svg" xmlns:xlink="http://www.w3.org/1999/xlink" viewBox="0 0 64 64"><defs><style>.cls-1{fill:url(#linear-gradient);}</style><linearGradient id="linear-gradient" x1="5.41162" y1="31.98794" x2="57.0574" y2="31.98794" gradientUnits="userSpaceOnUse"><stop offset="0" stop-color="#ffa68d"/><stop offset="1" stop-color="#fd3a84"/></linearGradient></defs><title>1</title><path class="cls-1" d="M54.04,15.54736c-1.59445-1.59016-4.98944-4.993-6.56348-6.563-10.63882-10.09847-26.811-4.58058-30.93751,13.867L11.15527,39.56885c-2.27132,3.02218-5.15461,7.13153-5.706,9.1626a1.00013,1.00013,0,0,0,1.92971.52532c.166-.6076.99625-2.60107,5.02708-8.01824a13.96734,13.96734,0,0,0,4.49957.12755c-.33545,2.4286-.99463,3.0528-1.21417,3.194a1.006,1.006,0,0,0,.459,1.83836,12.21989,12.21989,0,0,0,7.0304-1.71487,8.71421,8.71421,0,0,1-1.20233,4.96391.99965.99965,0,0,0,.71093,1.50684,13.2849,13.2849,0,0,0,1.77246.10742,11.44575,11.44575,0,0,0,6.53229-1.8255,6.12774,6.12774,0,0,1-1.04986,4.34454,1.00266,1.00266,0,0,0-.18067,1.01074c.42268.761.726.63984,1.77828.688a10.86023,10.86023,0,0,0,6.77574-2.30789c.14239,2.09613-.184,2.85285-.36359,3.10034-.58116.98075.22367,1.74067,1.40525,1.62443,1.55544.00008,5.0187-.57719,6.82449-5.35612,1.58624,2.67987,2.426,4.92334,2.36694,6.42017a1.00143,1.00143,0,0,0,1.97753.24358c.12892-.61419,3.05372-15.17132-4.19335-26.43059A10.02518,10.02518,0,0,1,44.624,26.606a6.07935,6.07935,0,0,1,.67908-2.50763,9.77583,9.77583,0,0,0,7.77843.762,8.16753,8.16753,0,0,1,.61574,2.17142,1.00621,1.00621,0,0,0,1.7705.542C55.51172,27.51953,59.832,22.07617,54.04,15.54736ZM44.65332,33.856c4.28613,6.65918,4.73633,14.78222,4.47559,19.90967-1.58838-3.093-3.89665-6.87237-6.68647-9.27349-2.98931-2.70112-3.64654-9.79292-3.65338-9.86421a1.00012,1.00012,0,0,0-1.99218.17438c.02832.32269.73144,7.94525,4.30468,11.17376a19.49739,19.49739,0,0,1,3.66952,4.34679c-1.00991,4.15089-3.16994,5.25642-4.55624,5.516a14.63815,14.63815,0,0,0-.09948-4.58728c.49881-.80042,1.97719-2.40186.63176-3.15881-1.42757-.57611-1.68165,1.63248-2.45521,2.27968a8.34725,8.34725,0,0,1-5.83878,3.0665,11.1653,11.1653,0,0,0,.33819-5.86779,7.865,7.865,0,0,0,1.23309-3.51892,1.00056,1.00056,0,0,0-1.98828-.2226c-.24687,4.14409-4.60861,5.56994-7.629,5.42654a11.2871,11.2871,0,0,0,.62219-6.11959c.66557-.88171,2.72179-3.19958,1.06753-4.01451a1.00051,1.00051,0,0,0-1.28726.58592c-.83323,2.7743-4.26671,4.46518-6.58214,4.61265a12.754,12.754,0,0,0,.75286-3.55046,6.19715,6.19715,0,0,0,2.51483-1.965,1.00021,1.00021,0,0,0-1.60355-1.19527c-1.3703,1.969-4.5368,2.06541-6.56791,1.74954L18.4668,23.37891C21.54018,11.20865,27.18452,8.00879,32.62579,6.366a14.45365,14.45365,0,0,1,13.4367,4.03244l2.0586,2.05859L45.26855,15.4375c-2.01367,2.50635-7.24511,1.59375-7.29589,1.584a1.00057,1.00057,0,0,0-.71485,1.82911,16.703,16.703,0,0,0,4.54572,1.94635,11.32561,11.32561,0,0,0,1.87189,2.118C41.79554,26.22076,42.5031,30.52739,44.65332,33.856Zm.9707-11.92725c-.2127-.1543-.39514-.3186-.58136-.48132a25.253,25.253,0,0,0,4.52277.18786,4.78493,4.78493,0,0,1,2.38312,1.45417A7.411,7.411,0,0,1,45.624,21.92871Zm9.29786,2.13477a7.03927,7.03927,0,0,0-5.3545-4.43314,23.37155,23.37155,0,0,1-6.88281-.66013,6.72181,6.72181,0,0,0,4.085-2.21435l2.7666-2.88477L52.585,16.918C55.15332,19.81445,55.30762,22.35645,54.92188,24.06348ZM39.05371,13.09229c0-.04261-.01416-.08338-.01593-.12586a7.698,7.698,0,0,0,1.91632-.6803.99969.99969,0,1,0-.90234-1.78418,4.1712,4.1712,0,0,1-3.3584.4502,4.20994,4.20994,0,0,0-1.29742-.72425c-1.75149-.70858-5.88592.374-4.82081,2.14608.85506.92732,1.23353.155,2.42018-.233A3.10041,3.10041,0,1,0,39.05371,13.09229Zm-3.10156,1.11132a1.10687,1.10687,0,0,1-.78292-1.88063,3.39617,3.39617,0,0,0,1.8845.76926A1.10775,1.10775,0,0,1,35.95215,14.20361Z"/></svg>